<svg xmlns="http://www.w3.org/2000/svg" xmlns:xlink="http://www.w3.org/1999/xlink" width="40" zoomAndPan="magnify" viewBox="0 0 30 30.000001" height="40" preserveAspectRatio="xMidYMid meet" version="1.0"><defs><clipPath id="59bacd1520"><path d="M 2.726562 0 L 27.40625 0 L 27.40625 29.03125 L 2.726562 29.03125 Z M 2.726562 0 " clip-rule="nonzero"/></clipPath></defs><g clip-path="url(#59bacd1520)"><path fill="#c08e32" d="M 6.347656 10.625 C 6.226562 10.035156 5.972656 9.421875 5.527344 8.789062 C 8.730469 7.757812 11.167969 4.167969 13.453125 4.984375 C 12.433594 4.878906 11.671875 5.789062 11 7.082031 C 9.476562 7.320312 8.941406 9.867188 6.347656 10.625 Z M 14.542969 5.058594 C 13.371094 2.082031 11.511719 2.664062 9.210938 5.476562 C 11.511719 3.882812 13.167969 3.523438 14.542969 5.058594 Z M 8.996094 11.984375 C 8.832031 11.355469 8.929688 10.636719 9.453125 9.78125 C 8.597656 10.863281 7.554688 11.652344 6.394531 12.242188 C 6.230469 13.449219 5.722656 14.546875 5.542969 15.53125 C 6.15625 14.992188 6.894531 14.535156 8.085938 14.027344 C 8.808594 13.722656 9.269531 13.074219 8.996094 11.984375 Z M 11.28125 15.757812 C 11.058594 17.519531 10.050781 18.585938 9.179688 19.761719 C 7.945312 21.4375 9.398438 22.671875 11.132812 23.605469 C 10.632812 21.03125 13.097656 18.972656 11.28125 15.757812 Z M 15.070312 4.261719 C 15.167969 3.585938 15.15625 2.910156 15.953125 2.101562 C 15.679688 1.945312 15.371094 1.882812 15.070312 1.882812 C 14.578125 1.882812 14.089844 2.050781 13.738281 2.480469 C 14.339844 2.96875 14.753906 3.582031 15.070312 4.261719 Z M 16.945312 8.554688 C 17.699219 7.777344 18.539062 7.5 19.054688 7.84375 C 19.320312 8.015625 19.558594 8.230469 19.773438 8.40625 C 20.699219 9.152344 19.382812 9.339844 18.789062 9.25 C 18.988281 9.054688 19.21875 8.910156 19.515625 8.851562 C 19.171875 8.46875 18.5625 8.636719 17.472656 9.488281 C 16.757812 10.046875 16.265625 10.097656 16.449219 9.1875 C 16.117188 9.589844 15.851562 10.035156 15.652344 10.550781 C 15.949219 10.898438 16.222656 11.558594 16.140625 12.015625 C 16.042969 12.601562 15.40625 12.335938 15.0625 12.574219 C 14.726562 12.335938 14.089844 12.601562 13.984375 12.015625 C 13.949219 11.820312 13.996094 11.582031 14.066406 11.320312 C 12.945312 12.386719 12.660156 12.792969 13.84375 13.636719 C 13.324219 11.996094 15.769531 13.828125 14.492188 15.074219 C 12.871094 16.648438 10.144531 15.128906 12.410156 12.242188 C 11.992188 12.324219 11.605469 12.476562 11.285156 12.753906 C 10.855469 12.511719 10.394531 12.3125 9.980469 12.035156 C 9.132812 11.472656 10.097656 10.589844 10.269531 9.859375 C 10.027344 9.34375 9.984375 8.710938 10.359375 8.410156 C 10.574219 8.238281 10.8125 8.023438 11.074219 7.847656 C 11.589844 7.507812 12.433594 7.777344 13.1875 8.5625 C 12.898438 7.949219 12.507812 7.414062 11.960938 7.003906 C 13.128906 5.214844 13.78125 5.585938 15.0625 7.472656 C 15.839844 6.328125 16.386719 5.746094 16.953125 5.855469 C 18.105469 6.074219 17.070312 7.902344 16.945312 8.554688 Z M 14.480469 10.550781 C 14.28125 10.039062 14.007812 9.589844 13.679688 9.1875 C 13.867188 10.105469 13.371094 10.046875 12.660156 9.488281 C 11.578125 8.636719 10.964844 8.46875 10.613281 8.851562 C 10.917969 8.910156 11.152344 9.054688 11.347656 9.25 C 11.035156 9.363281 10.738281 9.511719 10.46875 9.714844 C 10.90625 10.039062 11.179688 10.53125 11.625 10.78125 C 11.519531 10.464844 11.507812 10.15625 11.601562 9.867188 C 11.804688 10.671875 12.375 10.765625 13.074219 10.5625 C 12.835938 10.800781 12.5625 10.96875 12.242188 11.0625 C 12.503906 11.105469 12.773438 11.105469 13.050781 11.0625 C 12.847656 11.332031 12.703125 11.617188 12.613281 11.914062 C 13.140625 11.402344 13.75 10.9375 14.480469 10.550781 Z M 19.253906 3.785156 C 17.832031 2.683594 16.648438 2.8125 15.785156 4.609375 C 16.816406 3.5625 17.996094 3.4375 19.253906 3.785156 Z M 17.082031 11.066406 C 20.164062 14.671875 21.308594 9.570312 18.980469 10.394531 C 18.835938 10.542969 18.6875 10.683594 18.515625 10.78125 C 18.621094 10.464844 18.632812 10.15625 18.539062 9.867188 C 18.332031 10.671875 17.761719 10.765625 17.0625 10.5625 C 17.300781 10.800781 17.574219 10.96875 17.894531 11.0625 C 17.628906 11.117188 17.359375 11.117188 17.082031 11.066406 Z M 10.160156 13.523438 C 9.308594 14.933594 7.425781 15.253906 6.488281 16.492188 C 5.238281 18.140625 6.078125 19.832031 7.398438 21.300781 C 7.398438 18.46875 11.09375 17.0625 10.160156 13.523438 Z M 21.066406 10.226562 C 21.730469 12.039062 23.316406 13.332031 24.441406 14.882812 C 24.210938 14.070312 23.867188 13.1875 23.742188 12.238281 C 22.753906 11.734375 21.847656 11.082031 21.066406 10.226562 Z M 15.808594 20 C 15.554688 20.238281 15.300781 20.480469 15.070312 20.75 C 14.382812 19.976562 13.566406 19.367188 12.8125 18.671875 C 12.820312 19.996094 12.105469 21.257812 12.300781 22.359375 C 12.5625 23.851562 14.148438 24.761719 15.070312 25.953125 C 16.363281 24.289062 15.65625 21.902344 15.808594 20 Z M 26.34375 7.496094 L 27.40625 7.890625 L 26.699219 8.777344 C 25.078125 10.804688 25.324219 12.164062 26.191406 14.492188 C 26.828125 16.199219 26.902344 17.960938 26.191406 19.652344 C 25.515625 21.269531 24.234375 22.558594 22.789062 23.519531 C 20.363281 25.144531 17.820312 26.667969 15.597656 28.558594 L 15.070312 29.011719 L 14.53125 28.558594 C 12.3125 26.664062 9.769531 25.136719 7.34375 23.519531 C 5.898438 22.558594 4.621094 21.269531 3.941406 19.652344 C 3.234375 17.960938 3.304688 16.199219 3.941406 14.492188 C 4.808594 12.164062 5.054688 10.804688 3.433594 8.777344 L 2.726562 7.894531 L 3.789062 7.5 C 5.460938 6.886719 6.628906 5.765625 7.800781 4.480469 C 8.820312 3.351562 9.933594 1.945312 11.394531 1.382812 C 11.683594 1.273438 11.980469 1.199219 12.28125 1.152344 C 13.027344 0.457031 14.042969 0.0234375 15.0625 0.0234375 C 16.089844 0.0234375 17.101562 0.449219 17.851562 1.152344 C 18.152344 1.191406 18.449219 1.273438 18.734375 1.382812 C 20.199219 1.945312 21.3125 3.351562 22.332031 4.480469 C 23.503906 5.761719 24.675781 6.878906 26.34375 7.496094 Z M 26.058594 8.265625 C 21.742188 6.671875 20.589844 2.101562 17.476562 1.933594 C 16.917969 1.316406 16.023438 0.839844 15.070312 0.839844 C 14.117188 0.839844 13.226562 1.316406 12.660156 1.933594 C 9.546875 2.101562 8.394531 6.671875 4.078125 8.265625 C 5.847656 10.476562 5.730469 12.058594 4.714844 14.777344 C 3.402344 18.285156 5.089844 21.019531 7.804688 22.835938 C 10.304688 24.503906 12.84375 26.035156 15.070312 27.933594 C 17.296875 26.035156 19.832031 24.503906 22.332031 22.835938 C 25.050781 21.019531 26.734375 18.285156 25.421875 14.777344 C 24.40625 12.058594 24.292969 10.476562 26.058594 8.265625 Z M 19.976562 13.523438 C 20.445312 16.21875 24.589844 17.710938 23.074219 20.910156 C 24.1875 19.535156 24.78125 18 23.648438 16.5 C 22.710938 15.253906 20.828125 14.933594 19.976562 13.523438 Z M 17.046875 4.886719 C 19.679688 5.113281 21.109375 8.960938 24.035156 9.820312 C 24.175781 9.484375 24.367188 9.136719 24.613281 8.78125 C 21.570312 7.808594 19.226562 4.53125 17.046875 4.886719 Z M 15.0625 15.78125 C 14.449219 15.78125 13.839844 16.511719 12.910156 16.609375 C 12.933594 17.292969 13.210938 17.808594 13.613281 18.230469 C 13.59375 17.785156 13.691406 17.402344 13.957031 17.101562 C 14.046875 18.1875 14.632812 18.683594 15.058594 19.355469 C 15.511719 18.613281 15.558594 17.222656 15.253906 16.410156 C 16.257812 16.792969 16.894531 17.230469 16.871094 17.757812 C 17.070312 17.433594 17.191406 17.054688 17.203125 16.601562 C 16.289062 16.511719 15.675781 15.78125 15.0625 15.78125 Z M 16.953125 23.996094 C 17.382812 23.507812 17.726562 22.988281 17.839844 22.359375 C 18.011719 21.363281 17.449219 20.238281 17.335938 19.054688 C 16.863281 20.679688 17.332031 22.378906 16.953125 23.996094 Z M 17.035156 12.554688 C 17.097656 12.894531 16.871094 13.210938 16.28125 13.628906 C 16.800781 11.988281 14.359375 13.820312 15.632812 15.066406 C 15.949219 15.367188 16.304688 15.558594 16.648438 15.648438 C 18.496094 15.738281 18.988281 13.582031 17.035156 12.554688 Z M 18.859375 15.757812 C 18.183594 18.128906 21.40625 21.171875 19.355469 23.414062 C 20.929688 22.5 22.109375 21.328125 20.957031 19.761719 C 20.089844 18.585938 19.078125 17.519531 18.859375 15.757812 Z M 18.859375 15.757812 " fill-opacity="1" fill-rule="evenodd"/></g></svg>